<?xml version="1.0" encoding="utf-8"?>
<!-- Generator: Adobe Illustrator 25.0.0, SVG Export Plug-In . SVG Version: 6.00 Build 0)  -->
<svg version="1.1" id="Layer_1" xmlns="http://www.w3.org/2000/svg" xmlns:xlink="http://www.w3.org/1999/xlink" x="0px" y="0px"
	 viewBox="0 0 30 30" style="enable-background:new 0 0 30 30;" xml:space="preserve">
<style type="text/css">
	.st0{fill:#F4E9A2;}
</style>
<path class="st0" d="M0,14.96c0.97-0.23,1.93-0.46,2.9-0.7c2.98-0.71,5.95-1.43,8.93-2.14c0.2-0.05,0.25-0.15,0.29-0.32
	c0.93-3.89,1.86-7.77,2.8-11.66c0.01-0.05,0.03-0.09,0.1-0.15c0.03,0.12,0.06,0.24,0.09,0.35c0.92,3.83,1.84,7.66,2.75,11.48
	c0.04,0.17,0.12,0.25,0.29,0.3c3.84,0.92,7.67,1.84,11.51,2.76c0.11,0.03,0.22,0.06,0.34,0.15c-0.61,0.15-1.21,0.3-1.82,0.44
	c-3.33,0.8-6.66,1.6-10,2.39c-0.2,0.05-0.28,0.14-0.33,0.33c-0.93,3.88-1.86,7.75-2.79,11.63c-0.01,0.06-0.03,0.11-0.1,0.18
	c-0.03-0.1-0.06-0.2-0.09-0.3c-0.92-3.83-1.84-7.65-2.75-11.48c-0.05-0.22-0.13-0.32-0.36-0.37C7.88,16.93,4,16,0.11,15.06
	C0.08,15.05,0.04,15.04,0,15.03C0,15.01,0,14.98,0,14.96z"/>
</svg>
